<svg width="36" height="36" viewBox="0 0 36 36" fill="none" xmlns="http://www.w3.org/2000/svg">
<rect width="36" height="36" rx="4" fill="#6B46C1"/>
<rect width="36" height="36" rx="4" fill="url(#paint0_linear_387_735)" fill-opacity="0.2"/>
<g clip-path="url(#clip0_387_735)">
<g filter="url(#filter0_di_387_735)">
<path d="M18 8.625C12.8306 8.625 8.625 12.8306 8.625 18V21.8841C8.625 22.8441 9.46594 23.625 10.5 23.625H11.4375C11.6861 23.625 11.9246 23.5262 12.1004 23.3504C12.2762 23.1746 12.375 22.9361 12.375 22.6875V17.8659C12.375 17.6173 12.2762 17.3788 12.1004 17.203C11.9246 17.0272 11.6861 16.9284 11.4375 16.9284H10.5863C11.1075 13.3003 14.2294 10.5 18 10.5C21.7706 10.5 24.8925 13.3003 25.4138 16.9284H24.5625C24.3139 16.9284 24.0754 17.0272 23.8996 17.203C23.7238 17.3788 23.625 17.6173 23.625 17.8659V23.625C23.625 24.6591 22.7841 25.5 21.75 25.5H19.875V24.5625H16.125V27.375H21.75C23.8181 27.375 25.5 25.6931 25.5 23.625C26.5341 23.625 27.375 22.8441 27.375 21.8841V18C27.375 12.8306 23.1694 8.625 18 8.625Z" fill="#D6BCFA"/>
<path d="M18 8.625C12.8306 8.625 8.625 12.8306 8.625 18V21.8841C8.625 22.8441 9.46594 23.625 10.5 23.625H11.4375C11.6861 23.625 11.9246 23.5262 12.1004 23.3504C12.2762 23.1746 12.375 22.9361 12.375 22.6875V17.8659C12.375 17.6173 12.2762 17.3788 12.1004 17.203C11.9246 17.0272 11.6861 16.9284 11.4375 16.9284H10.5863C11.1075 13.3003 14.2294 10.5 18 10.5C21.7706 10.5 24.8925 13.3003 25.4138 16.9284H24.5625C24.3139 16.9284 24.0754 17.0272 23.8996 17.203C23.7238 17.3788 23.625 17.6173 23.625 17.8659V23.625C23.625 24.6591 22.7841 25.5 21.75 25.5H19.875V24.5625H16.125V27.375H21.75C23.8181 27.375 25.5 25.6931 25.5 23.625C26.5341 23.625 27.375 22.8441 27.375 21.8841V18C27.375 12.8306 23.1694 8.625 18 8.625Z" fill="url(#paint1_linear_387_735)" fill-opacity="0.2"/>
</g>
</g>
<defs>
<filter id="filter0_di_387_735" x="3.625" y="7.625" width="28.75" height="28.75" filterUnits="userSpaceOnUse" color-interpolation-filters="sRGB">
<feFlood flood-opacity="0" result="BackgroundImageFix"/>
<feColorMatrix in="SourceAlpha" type="matrix" values="0 0 0 0 0 0 0 0 0 0 0 0 0 0 0 0 0 0 127 0" result="hardAlpha"/>
<feOffset dy="4"/>
<feGaussianBlur stdDeviation="2.5"/>
<feComposite in2="hardAlpha" operator="out"/>
<feColorMatrix type="matrix" values="0 0 0 0 0 0 0 0 0 0 0 0 0 0 0 0 0 0 0.25 0"/>
<feBlend mode="normal" in2="BackgroundImageFix" result="effect1_dropShadow_387_735"/>
<feBlend mode="normal" in="SourceGraphic" in2="effect1_dropShadow_387_735" result="shape"/>
<feColorMatrix in="SourceAlpha" type="matrix" values="0 0 0 0 0 0 0 0 0 0 0 0 0 0 0 0 0 0 127 0" result="hardAlpha"/>
<feOffset dy="1"/>
<feGaussianBlur stdDeviation="0.75"/>
<feComposite in2="hardAlpha" operator="arithmetic" k2="-1" k3="1"/>
<feColorMatrix type="matrix" values="0 0 0 0 1 0 0 0 0 1 0 0 0 0 1 0 0 0 0.6 0"/>
<feBlend mode="normal" in2="shape" result="effect2_innerShadow_387_735"/>
</filter>
<linearGradient id="paint0_linear_387_735" x1="18" y1="0" x2="18" y2="36" gradientUnits="userSpaceOnUse">
<stop stop-opacity="0"/>
<stop offset="1"/>
</linearGradient>
<linearGradient id="paint1_linear_387_735" x1="17.9313" y1="10.8132" x2="18.2681" y2="27.3695" gradientUnits="userSpaceOnUse">
<stop stop-opacity="0"/>
<stop offset="1"/>
</linearGradient>
<clipPath id="clip0_387_735">
<rect width="22.5" height="22.5" fill="white" transform="translate(6.75 6.75)"/>
</clipPath>
</defs>
</svg>
