<svg width="36" height="36" viewBox="0 0 36 36" fill="none" xmlns="http://www.w3.org/2000/svg">
<rect width="36" height="36" rx="4" fill="#6B46C1"/>
<rect width="36" height="36" rx="4" fill="url(#paint0_linear_387_725)" fill-opacity="0.2"/>
<g filter="url(#filter0_di_387_725)">
<path d="M23.9024 17.1018C24.6037 17.5011 24.6037 18.4992 23.9024 18.8984L14.4349 24.2882C13.7336 24.6874 12.8569 24.1883 12.8569 23.3899V12.6103C12.8569 11.8119 13.7336 11.3128 14.4349 11.712L23.9024 17.1018Z" fill="#D6BCFA"/>
<path d="M23.9024 17.1018C24.6037 17.5011 24.6037 18.4992 23.9024 18.8984L14.4349 24.2882C13.7336 24.6874 12.8569 24.1883 12.8569 23.3899V12.6103C12.8569 11.8119 13.7336 11.3128 14.4349 11.712L23.9024 17.1018Z" fill="url(#paint1_linear_387_725)" fill-opacity="0.2"/>
</g>
<defs>
<filter id="filter0_di_387_725" x="7.85693" y="10.5715" width="21.5713" height="22.8572" filterUnits="userSpaceOnUse" color-interpolation-filters="sRGB">
<feFlood flood-opacity="0" result="BackgroundImageFix"/>
<feColorMatrix in="SourceAlpha" type="matrix" values="0 0 0 0 0 0 0 0 0 0 0 0 0 0 0 0 0 0 127 0" result="hardAlpha"/>
<feOffset dy="4"/>
<feGaussianBlur stdDeviation="2.5"/>
<feComposite in2="hardAlpha" operator="out"/>
<feColorMatrix type="matrix" values="0 0 0 0 0 0 0 0 0 0 0 0 0 0 0 0 0 0 0.25 0"/>
<feBlend mode="normal" in2="BackgroundImageFix" result="effect1_dropShadow_387_725"/>
<feBlend mode="normal" in="SourceGraphic" in2="effect1_dropShadow_387_725" result="shape"/>
<feColorMatrix in="SourceAlpha" type="matrix" values="0 0 0 0 0 0 0 0 0 0 0 0 0 0 0 0 0 0 127 0" result="hardAlpha"/>
<feOffset dy="1"/>
<feGaussianBlur stdDeviation="0.75"/>
<feComposite in2="hardAlpha" operator="arithmetic" k2="-1" k3="1"/>
<feColorMatrix type="matrix" values="0 0 0 0 1 0 0 0 0 1 0 0 0 0 1 0 0 0 0.6 0"/>
<feBlend mode="normal" in2="shape" result="effect2_innerShadow_387_725"/>
</filter>
<linearGradient id="paint0_linear_387_725" x1="18" y1="0" x2="18" y2="36" gradientUnits="userSpaceOnUse">
<stop stop-opacity="0"/>
<stop offset="1"/>
</linearGradient>
<linearGradient id="paint1_linear_387_725" x1="18.6002" y1="13.072" x2="18.8568" y2="24.4238" gradientUnits="userSpaceOnUse">
<stop stop-opacity="0"/>
<stop offset="1"/>
</linearGradient>
</defs>
</svg>
